<svg width="1049" height="178" viewBox="0 0 1049 178" fill="none" xmlns="http://www.w3.org/2000/svg">
<path d="M159.632 142.128C155.606 147.47 151.004 152.318 145.826 156.674C140.649 161.029 135.02 164.769 128.939 167.891C122.94 170.932 116.571 173.274 109.832 174.918C103.093 176.643 96.1081 177.506 88.8764 177.506C80.6585 177.506 72.7693 176.438 65.2089 174.301C57.6484 172.165 50.5811 169.206 44.0068 165.426C37.4325 161.564 31.4334 156.92 26.0096 151.497C20.5858 146.073 15.9427 140.074 12.0803 133.499C8.21788 126.925 5.21836 119.858 3.08171 112.297C1.02724 104.737 0 96.8477 0 88.6299C0 80.4942 1.02724 72.6461 3.08171 65.0856C5.21836 57.5252 8.21788 50.4578 12.0803 43.8835C15.9427 37.3092 20.5858 31.3512 26.0096 26.0096C31.4334 20.5858 37.4325 15.9427 44.0068 12.0803C50.5811 8.21788 57.6484 5.25944 65.2089 3.20497C72.7693 1.06832 80.6585 0 88.8764 0C97.7517 0 106.175 1.23268 114.146 3.69805C122.2 6.08123 129.966 9.61492 137.444 14.2991L117.968 60.8945L91.7116 49.8004L99.9705 30.5705C98.0804 30.1596 96.1903 29.9131 94.3002 29.8309C92.4923 29.6666 90.6843 29.5844 88.8764 29.5844C80.6585 29.5844 72.9337 31.1458 65.702 34.2686C58.5524 37.3914 52.2657 41.6647 46.8419 47.0885C41.5003 52.4301 37.2681 58.6757 34.1453 65.8252C31.0225 72.9748 29.4611 80.5763 29.4611 88.6299C29.4611 96.6834 31.0225 104.326 34.1453 111.558C37.2681 118.707 41.5003 124.994 46.8419 130.418C52.1836 135.759 58.4702 140.033 65.702 143.238C72.9337 146.36 80.6585 147.922 88.8764 147.922C97.9983 147.922 106.545 145.991 114.516 142.128C122.488 138.266 129.391 132.678 135.225 125.364L159.632 142.128Z" fill="black"/>
<path d="M269.588 0C277.723 0 285.571 1.06832 293.132 3.20497C300.692 5.34162 307.76 8.34115 314.334 12.2036C320.908 15.9838 326.907 20.5858 332.331 26.0096C337.755 31.4334 342.398 37.4324 346.26 44.0068C350.123 50.5811 353.122 57.6484 355.259 65.2089C357.396 72.7693 358.464 80.6174 358.464 88.7531C358.464 96.8888 357.396 104.737 355.259 112.297C353.122 119.858 350.123 126.925 346.26 133.499C342.398 140.074 337.755 146.073 332.331 151.497C326.907 156.92 320.908 161.564 314.334 165.426C307.76 169.206 300.692 172.165 293.132 174.301C285.571 176.438 277.723 177.506 269.588 177.506C261.452 177.506 253.604 176.438 246.043 174.301C238.483 172.165 231.416 169.206 224.841 165.426C218.267 161.564 212.268 156.92 206.844 151.497C201.42 146.073 196.777 140.074 192.915 133.499C189.052 126.925 186.053 119.858 183.916 112.297C181.78 104.737 180.711 96.8888 180.711 88.7531C180.711 80.6174 181.78 72.7693 183.916 65.2089C186.053 57.6484 189.052 50.5811 192.915 44.0068C196.777 37.4324 201.42 31.4334 206.844 26.0096C212.268 20.5858 218.267 15.9838 224.841 12.2036C231.416 8.34115 238.483 5.34162 246.043 3.20497C253.604 1.06832 261.452 0 269.588 0ZM311.499 130.788C317.087 125.035 321.36 118.584 324.319 111.434C327.277 104.203 328.756 96.6423 328.756 88.7531C328.756 80.6996 327.154 73.0981 323.949 65.9485C320.826 58.7989 316.553 52.5534 311.129 47.2117C305.787 41.7879 299.542 37.5146 292.392 34.3918C285.243 31.1869 277.641 29.5844 269.588 29.5844C261.534 29.5844 253.891 31.1869 246.66 34.3918C239.51 37.5146 233.224 41.7879 227.8 47.2117C222.458 52.5534 218.226 58.84 215.103 66.0718C211.98 73.2213 210.419 80.7818 210.419 88.7531C210.419 96.8066 211.98 104.449 215.103 111.681C218.226 118.831 222.458 125.117 227.8 130.541C233.141 135.883 239.387 140.156 246.536 143.361C253.768 146.484 261.452 148.045 269.588 148.045C277.559 148.045 285.078 146.566 292.146 143.607C299.295 140.649 305.746 136.376 311.499 130.788Z" fill="black"/>
<path d="M528.328 6.04014C528.328 13.6828 527.342 21.0378 525.369 28.1052C523.397 35.1725 520.644 41.7468 517.11 47.8281C513.577 53.9093 509.303 59.4564 504.29 64.4693C499.277 69.4 493.73 73.6322 487.649 77.1659C481.65 80.6996 475.158 83.4526 468.173 85.4249C461.27 87.315 454.079 88.2601 446.601 88.2601H435.26V170.11H405.429V88.2601H395.321V59.0455H405.429V35.2547H379.42V6.04014H528.328ZM446.354 59.0455C450.792 59.0455 455.106 58.5113 459.297 57.443C463.571 56.2925 467.598 54.69 471.378 52.6355C475.158 50.4989 478.609 47.9924 481.732 45.1162C484.855 42.1577 487.608 38.8706 489.991 35.2547H435.26V59.0455H446.354Z" fill="black"/>
<path d="M700.287 6.04014V35.378H674.154V169.617H643.953V140.649C643.953 133.417 642.515 126.596 639.639 120.187C636.845 113.777 633.023 108.188 628.175 103.422C623.409 98.6557 617.82 94.9165 611.41 92.2046C605.083 89.4106 598.385 88.0135 591.318 88.0135C589.181 88.0135 587.003 88.1779 584.784 88.5066C582.648 88.7531 580.717 89.1229 578.991 89.616V169.617H549.283V84.562C549.283 77.2481 550.269 70.2629 552.242 63.6064C554.296 56.8677 557.131 50.6222 560.747 44.8696C564.363 39.0349 568.677 33.7755 573.69 29.0913C578.703 24.3249 584.25 20.2571 590.332 16.8877C596.413 13.5184 602.864 10.8887 609.685 8.99858C616.588 7.10847 623.737 6.12232 631.133 6.04014H700.287ZM643.953 35.378H632.12C627.435 35.378 622.916 35.9532 618.56 37.1037C614.287 38.2542 610.26 39.8978 606.48 42.0345C602.782 44.0889 599.371 46.5954 596.248 49.5538C593.208 52.4301 590.537 55.6351 588.236 59.1687C609.849 59.1687 628.422 65.5376 643.953 78.2753V35.378Z" fill="black"/>
<path d="M860.782 169.617H737.391V140.033H749.348V0.123268H778.685V140.033H831.444V113.653H860.782V169.617Z" fill="black"/>
<path d="M1048.89 6.04014V35.378H1022.76V169.617H992.556V140.649C992.556 133.417 991.118 126.596 988.242 120.187C985.447 113.777 981.626 108.188 976.778 103.422C972.011 98.6557 966.423 94.9165 960.013 92.2046C953.685 89.4106 946.988 88.0135 939.92 88.0135C937.784 88.0135 935.606 88.1779 933.387 88.5066C931.25 88.7531 929.319 89.1229 927.594 89.616V169.617H897.886V84.562C897.886 77.2481 898.872 70.2629 900.844 63.6064C902.899 56.8677 905.734 50.6222 909.35 44.8696C912.966 39.0349 917.28 33.7755 922.293 29.0913C927.306 24.3249 932.853 20.2571 938.934 16.8877C945.015 13.5184 951.466 10.8887 958.287 8.99858C965.19 7.10847 972.34 6.12232 979.736 6.04014H1048.89ZM992.556 35.378H980.722C976.038 35.378 971.518 35.9532 967.163 37.1037C962.889 38.2542 958.863 39.8978 955.082 42.0345C951.384 44.0889 947.974 46.5954 944.851 49.5538C941.81 52.4301 939.14 55.6351 936.839 59.1687C958.452 59.1687 977.024 65.5376 992.556 78.2753V35.378Z" fill="black"/>
<path d="M275.751 74.5772C273.861 73.7554 271.806 73.3445 269.588 73.3445C267.615 73.3445 265.684 73.7554 263.794 74.5772C261.986 75.399 260.384 76.5084 258.987 77.9054C257.672 79.3025 256.603 80.946 255.782 82.8362C254.96 84.7263 254.549 86.6986 254.549 88.753C254.549 90.8897 254.96 92.9031 255.782 94.7932C256.603 96.6011 257.672 98.2036 258.987 99.6006C260.384 100.998 261.986 102.107 263.794 102.929C265.684 103.751 267.615 104.162 269.588 104.162C271.806 104.162 273.861 103.751 275.751 102.929C277.641 102.107 279.285 100.998 280.682 99.6006C282.161 98.2036 283.311 96.6011 284.133 94.7932C284.955 92.9031 285.366 90.8897 285.366 88.753C285.366 86.6986 284.955 84.7263 284.133 82.8362C283.311 80.946 282.161 79.3025 280.682 77.9054C279.285 76.5084 277.641 75.399 275.751 74.5772Z" fill="#FF4949"/>
</svg>
